<svg width="26" height="25" viewBox="0 0 26 25" fill="none" xmlns="http://www.w3.org/2000/svg">
<g clip-path="url(#clip0_351_1748)">
<path d="M26 12.5765C26 5.62966 20.1793 -0.00158691 13 -0.00158691C5.81751 -2.4414e-05 -0.00323486 5.62966 -0.00323486 12.5781C-0.00323486 18.8547 4.75152 24.0578 10.9655 25.0015V16.2125H7.66676V12.5781H10.9688V9.80466C10.9688 6.6531 12.9106 4.91248 15.8795 4.91248C17.303 4.91248 18.7899 5.15779 18.7899 5.15779V8.25154H17.1503C15.5366 8.25154 15.0329 9.22185 15.0329 10.2172V12.5765H18.6371L18.0619 16.2109H15.0313V25C21.2453 24.0562 26 18.8531 26 12.5765Z" fill="black"/>
</g>
<defs>
<clipPath id="clip0_351_1748">
<rect width="26" height="25" fill="white"/>
</clipPath>
</defs>
</svg>
